<svg xmlns="http://www.w3.org/2000/svg" width="100" height="63" viewBox="0 0 335 210"><path d="M57.458 209.986q20.272 0 33.909-10.91t13.638-30.533V41.433q0-21.087-14.585-31.265A56.7 56.7 0 0057.167-.01H-.006v210h57.464zm-11.649-26.945V26.936q13.09 0 13.09 10.994V171.9q0 11.141-13.09 11.141z" fill-rule="evenodd" fill="#225378"/><path d="M208.61 124.7Q220 116.131 220 95.483V37.2q0-22.549-13.948-29.874T163.335 0h-48.342v210h44.837v-77.32q37.386.585 48.78-7.98zm-48.78-22.039V30.024q15.334 0 15.335 11.13v50.375q0 11.131-15.335 11.13z" fill="#eb7f00" fill-rule="evenodd"/><path d="M229.988 172.6q0 37.4 51.556 37.4 53.462 0 53.463-41.136v-26.32a40.543 40.543 0 00-7.844-24.452q-7.843-10.792-36.729-37.98-15.543-15.244-15.54-26.752l-.88-13.376q0-11.937 8.2-11.938 7.008 0 7.01 6.185V72.2h41.832V36.532Q331.058 0 283.306 0q-53.32 0-53.318 40.129v23.155a34.637 34.637 0 007.167 21.143q7.164 9.638 36.566 37.684 15.212 15.1 15.212 26.321v24.451q0 7.048-8.408 7.047-8.707 0-8.7-7.047v-47.32h-41.837V172.6z" fill="#1695a3" fill-rule="evenodd"/></svg>